<svg width="400" height="724" viewBox="0 0 400 724" fill="none" xmlns="http://www.w3.org/2000/svg">
<g opacity="0.04">
<path opacity="0.4" d="M190.779 623.473C306.304 568.15 348.145 415.109 284.232 281.647C220.319 148.185 74.8556 84.8415 -40.6701 140.165C-156.196 195.488 -198.036 348.529 -134.124 481.991C-70.2107 615.453 75.2529 678.796 190.779 623.473Z" fill="url(#paint0_radial_194_1615)" fill-opacity="0.9"/>
<path opacity="0.4" d="M190.779 623.473C306.304 568.15 348.145 415.109 284.232 281.647C220.319 148.185 74.8556 84.8415 -40.6701 140.165C-156.196 195.488 -198.036 348.529 -134.124 481.991C-70.2107 615.453 75.2529 678.796 190.779 623.473Z" fill="url(#paint1_radial_194_1615)" fill-opacity="0.9"/>
<path d="M106.596 447.685C174.097 415.36 191.564 311.361 145.609 215.398C99.6533 119.435 7.67847 67.8468 -59.8231 100.172C-127.325 132.498 -144.791 236.496 -98.8361 332.459C-52.8809 428.422 39.094 480.011 106.596 447.685Z" fill="url(#paint2_radial_194_1615)" fill-opacity="0.9"/>
<path d="M79.6619 391.443C132.112 366.326 145.679 285.51 109.967 210.935C74.2543 136.361 2.7847 96.2676 -49.6649 121.385C-102.114 146.502 -115.683 227.318 -79.9699 301.893C-44.2573 376.468 27.2123 416.561 79.6619 391.443Z" fill="url(#paint3_radial_194_1615)" fill-opacity="0.9"/>
</g>
<defs>
<radialGradient id="paint0_radial_194_1615" cx="0" cy="0" r="1" gradientUnits="userSpaceOnUse" gradientTransform="translate(72.7556 377.546) rotate(-25.589) scale(226.583 261.676)">
<stop offset="0.03" stop-color="#90FFFD"/>
<stop offset="0.14" stop-color="#90FFFD" stop-opacity="0.84"/>
<stop offset="0.32" stop-color="#90FFFD" stop-opacity="0.59"/>
<stop offset="0.49" stop-color="#90FFFD" stop-opacity="0.38"/>
<stop offset="0.65" stop-color="white" stop-opacity="0.21"/>
<stop offset="0.79" stop-color="white" stop-opacity="0.1"/>
<stop offset="0.91" stop-color="white" stop-opacity="0.03"/>
<stop offset="1" stop-color="white" stop-opacity="0"/>
</radialGradient>
<radialGradient id="paint1_radial_194_1615" cx="0" cy="0" r="1" gradientUnits="userSpaceOnUse" gradientTransform="translate(72.7556 377.546) rotate(-25.589) scale(226.583 261.676)">
<stop offset="0.03" stop-color="#90FFFD"/>
<stop offset="0.14" stop-color="#90FFFD" stop-opacity="0.84"/>
<stop offset="0.32" stop-color="#90FFFD" stop-opacity="0.59"/>
<stop offset="0.49" stop-color="#90FFFD" stop-opacity="0.38"/>
<stop offset="0.65" stop-color="white" stop-opacity="0.21"/>
<stop offset="0.79" stop-color="white" stop-opacity="0.1"/>
<stop offset="0.91" stop-color="white" stop-opacity="0.03"/>
<stop offset="1" stop-color="white" stop-opacity="0"/>
</radialGradient>
<radialGradient id="paint2_radial_194_1615" cx="0" cy="0" r="1" gradientUnits="userSpaceOnUse" gradientTransform="translate(21.816 270.65) rotate(-25.589) scale(132.443 188.136)">
<stop offset="0.03" stop-color="#90FFFD"/>
<stop offset="0.13" stop-color="#90FFFD" stop-opacity="0.81"/>
<stop offset="0.26" stop-color="#90FFFD" stop-opacity="0.6"/>
<stop offset="0.39" stop-color="#90FFFD" stop-opacity="0.41"/>
<stop offset="0.51" stop-color="white" stop-opacity="0.26"/>
<stop offset="0.64" stop-color="white" stop-opacity="0.15"/>
<stop offset="0.76" stop-color="white" stop-opacity="0.07"/>
<stop offset="0.88" stop-color="white" stop-opacity="0.02"/>
<stop offset="1" stop-color="white" stop-opacity="0"/>
</radialGradient>
<radialGradient id="paint3_radial_194_1615" cx="0" cy="0" r="1" gradientUnits="userSpaceOnUse" gradientTransform="translate(13.7408 253.788) rotate(-25.589) scale(102.938 146.224)">
<stop offset="0.03" stop-color="#90FFFD"/>
<stop offset="0.13" stop-color="#90FFFD" stop-opacity="0.81"/>
<stop offset="0.26" stop-color="#90FFFD" stop-opacity="0.6"/>
<stop offset="0.39" stop-color="#90FFFD" stop-opacity="0.41"/>
<stop offset="0.51" stop-color="white" stop-opacity="0.26"/>
<stop offset="0.64" stop-color="white" stop-opacity="0.15"/>
<stop offset="0.76" stop-color="white" stop-opacity="0.07"/>
<stop offset="0.88" stop-color="white" stop-opacity="0.02"/>
<stop offset="1" stop-color="white" stop-opacity="0"/>
</radialGradient>
</defs>
</svg>
