<svg width="64" height="64" viewBox="0 0 64 64" fill="none" xmlns="http://www.w3.org/2000/svg">
<g id="vuesax/fill/play-circle">
<g id="Vector">
<path fill-rule="evenodd" clip-rule="evenodd" d="M5.25 32.0002C5.25 46.7202 17.1967 58.6668 31.9167 58.6668C46.6367 58.6668 58.5833 46.7202 58.5833 32.0002C58.5833 17.2802 46.6633 5.3335 31.9167 5.3335C17.1967 5.3335 5.25 17.2802 5.25 32.0002ZM32.1833 42.4002C31.2233 42.9602 30.1567 43.2268 29.1167 43.2268C28.05 43.2268 27.01 42.9602 26.05 42.4002C24.13 41.2802 22.9833 39.3068 22.9833 37.0668V28.1335C22.9833 25.9202 24.13 23.9202 26.05 22.8002C27.97 21.6802 30.2633 21.6802 32.21 22.8002L39.9433 27.2535C41.8633 28.3735 43.01 30.3468 43.01 32.5868C43.01 34.8268 41.8633 36.8268 39.9167 37.9468L32.1833 42.4002Z" fill="#002C3F"/>
<path d="M32.1833 42.4002L31.9338 41.9669L31.9314 41.9683L32.1833 42.4002ZM26.05 42.4002L26.3019 41.9683L26.05 42.4002ZM32.21 22.8002L32.4595 22.3669L32.4593 22.3668L32.21 22.8002ZM39.9433 27.2535L40.1953 26.8216L40.1928 26.8202L39.9433 27.2535ZM39.9167 37.9468L39.6673 37.5134L39.6671 37.5135L39.9167 37.9468ZM4.75 32.0002C4.75 46.9963 16.9205 59.1668 31.9167 59.1668V58.1668C17.4728 58.1668 5.75 46.444 5.75 32.0002H4.75ZM31.9167 59.1668C46.9128 59.1668 59.0833 46.9963 59.0833 32.0002H58.0833C58.0833 46.444 46.3605 58.1668 31.9167 58.1668V59.1668ZM59.0833 32.0002C59.0833 17.0043 46.9398 4.8335 31.9167 4.8335V5.8335C46.3869 5.8335 58.0833 17.556 58.0833 32.0002H59.0833ZM31.9167 4.8335C16.9205 4.8335 4.75 17.004 4.75 32.0002H5.75C5.75 17.5563 17.4728 5.8335 31.9167 5.8335V4.8335ZM31.9314 41.9683C31.0511 42.4818 30.0719 42.7268 29.1167 42.7268V43.7268C30.2414 43.7268 31.3956 43.4385 32.4353 42.8321L31.9314 41.9683ZM29.1167 42.7268C28.1359 42.7268 27.1832 42.4823 26.3019 41.9683L25.7981 42.8321C26.8368 43.438 27.9641 43.7268 29.1167 43.7268V42.7268ZM26.3019 41.9683C24.5344 40.9372 23.4833 39.1277 23.4833 37.0668H22.4833C22.4833 39.486 23.7256 41.6231 25.7981 42.8321L26.3019 41.9683ZM23.4833 37.0668V28.1335H22.4833V37.0668H23.4833ZM23.4833 28.1335C23.4833 26.0981 24.5355 24.2625 26.3019 23.2321L25.7981 22.3683C23.7245 23.5778 22.4833 25.7422 22.4833 28.1335H23.4833ZM26.3019 23.2321C28.0652 22.2035 30.1673 22.2017 31.9606 23.2336L32.4593 22.3668C30.3594 21.1586 27.8748 21.1568 25.7981 22.3683L26.3019 23.2321ZM31.9605 23.2335L39.6938 27.6868L40.1928 26.8202L32.4595 22.3669L31.9605 23.2335ZM39.6914 27.6854C41.4589 28.7164 42.51 30.526 42.51 32.5868H43.51C43.51 30.1677 42.2677 28.0306 40.1953 26.8216L39.6914 27.6854ZM42.51 32.5868C42.51 34.6492 41.4578 36.4833 39.6673 37.5134L40.166 38.3802C42.2689 37.1703 43.51 35.0044 43.51 32.5868H42.51ZM39.6671 37.5135L31.9338 41.9669L32.4328 42.8335L40.1662 38.3801L39.6671 37.5135Z" fill="#EEE8A9"/>
</g>
</g>
</svg>
